<svg id="visual" viewBox="0 0 960 540" width="960" height="540" xmlns="http://www.w3.org/2000/svg" xmlns:xlink="http://www.w3.org/1999/xlink" version="1.1"><rect x="0" y="0" width="960" height="540" fill="#001122"></rect><defs><linearGradient id="grad1_0" x1="43.8%" y1="0%" x2="100%" y2="100%"><stop offset="14.444444444444446%" stop-color="#bb9dff" stop-opacity="1"></stop><stop offset="85.55555555555554%" stop-color="#bb9dff" stop-opacity="1"></stop></linearGradient></defs><defs><linearGradient id="grad1_1" x1="43.8%" y1="0%" x2="100%" y2="100%"><stop offset="14.444444444444446%" stop-color="#bb9dff" stop-opacity="1"></stop><stop offset="85.55555555555554%" stop-color="#9689df" stop-opacity="1"></stop></linearGradient></defs><defs><linearGradient id="grad1_2" x1="43.8%" y1="0%" x2="100%" y2="100%"><stop offset="14.444444444444446%" stop-color="#7375be" stop-opacity="1"></stop><stop offset="85.55555555555554%" stop-color="#9689df" stop-opacity="1"></stop></linearGradient></defs><defs><linearGradient id="grad1_3" x1="43.8%" y1="0%" x2="100%" y2="100%"><stop offset="14.444444444444446%" stop-color="#7375be" stop-opacity="1"></stop><stop offset="85.55555555555554%" stop-color="#55609d" stop-opacity="1"></stop></linearGradient></defs><defs><linearGradient id="grad1_4" x1="43.8%" y1="0%" x2="100%" y2="100%"><stop offset="14.444444444444446%" stop-color="#3a4c7d" stop-opacity="1"></stop><stop offset="85.55555555555554%" stop-color="#55609d" stop-opacity="1"></stop></linearGradient></defs><defs><linearGradient id="grad1_5" x1="43.8%" y1="0%" x2="100%" y2="100%"><stop offset="14.444444444444446%" stop-color="#3a4c7d" stop-opacity="1"></stop><stop offset="85.55555555555554%" stop-color="#22385d" stop-opacity="1"></stop></linearGradient></defs><defs><linearGradient id="grad1_6" x1="43.8%" y1="0%" x2="100%" y2="100%"><stop offset="14.444444444444446%" stop-color="#0f253e" stop-opacity="1"></stop><stop offset="85.55555555555554%" stop-color="#22385d" stop-opacity="1"></stop></linearGradient></defs><defs><linearGradient id="grad1_7" x1="43.8%" y1="0%" x2="100%" y2="100%"><stop offset="14.444444444444446%" stop-color="#0f253e" stop-opacity="1"></stop><stop offset="85.55555555555554%" stop-color="#001122" stop-opacity="1"></stop></linearGradient></defs><defs><linearGradient id="grad2_0" x1="0%" y1="0%" x2="56.3%" y2="100%"><stop offset="14.444444444444446%" stop-color="#bb9dff" stop-opacity="1"></stop><stop offset="85.55555555555554%" stop-color="#bb9dff" stop-opacity="1"></stop></linearGradient></defs><defs><linearGradient id="grad2_1" x1="0%" y1="0%" x2="56.3%" y2="100%"><stop offset="14.444444444444446%" stop-color="#9689df" stop-opacity="1"></stop><stop offset="85.55555555555554%" stop-color="#bb9dff" stop-opacity="1"></stop></linearGradient></defs><defs><linearGradient id="grad2_2" x1="0%" y1="0%" x2="56.3%" y2="100%"><stop offset="14.444444444444446%" stop-color="#9689df" stop-opacity="1"></stop><stop offset="85.55555555555554%" stop-color="#7375be" stop-opacity="1"></stop></linearGradient></defs><defs><linearGradient id="grad2_3" x1="0%" y1="0%" x2="56.3%" y2="100%"><stop offset="14.444444444444446%" stop-color="#55609d" stop-opacity="1"></stop><stop offset="85.55555555555554%" stop-color="#7375be" stop-opacity="1"></stop></linearGradient></defs><defs><linearGradient id="grad2_4" x1="0%" y1="0%" x2="56.3%" y2="100%"><stop offset="14.444444444444446%" stop-color="#55609d" stop-opacity="1"></stop><stop offset="85.55555555555554%" stop-color="#3a4c7d" stop-opacity="1"></stop></linearGradient></defs><defs><linearGradient id="grad2_5" x1="0%" y1="0%" x2="56.3%" y2="100%"><stop offset="14.444444444444446%" stop-color="#22385d" stop-opacity="1"></stop><stop offset="85.55555555555554%" stop-color="#3a4c7d" stop-opacity="1"></stop></linearGradient></defs><defs><linearGradient id="grad2_6" x1="0%" y1="0%" x2="56.3%" y2="100%"><stop offset="14.444444444444446%" stop-color="#22385d" stop-opacity="1"></stop><stop offset="85.55555555555554%" stop-color="#0f253e" stop-opacity="1"></stop></linearGradient></defs><defs><linearGradient id="grad2_7" x1="0%" y1="0%" x2="56.3%" y2="100%"><stop offset="14.444444444444446%" stop-color="#001122" stop-opacity="1"></stop><stop offset="85.55555555555554%" stop-color="#0f253e" stop-opacity="1"></stop></linearGradient></defs><g transform="translate(960, 0)"><path d="M0 486C-63.5 473 -127.1 460.1 -178.7 431.5C-230.4 402.8 -270.2 358.6 -317.5 317.5C-364.8 276.4 -419.7 238.4 -449 186C-478.3 133.6 -482.2 66.8 -486 0L0 0Z" fill="#071b30"></path><path d="M0 425.3C-55.6 413.9 -111.2 402.5 -156.4 377.5C-201.6 352.5 -236.4 313.8 -277.8 277.8C-319.2 241.8 -367.2 208.6 -392.9 162.7C-418.6 116.9 -421.9 58.4 -425.2 0L0 0Z" fill="#182e4e"></path><path d="M0 364.5C-47.6 354.8 -95.3 345 -134 323.6C-172.8 302.1 -202.6 269 -238.1 238.1C-273.6 207.3 -314.7 178.8 -336.8 139.5C-358.8 100.2 -361.6 50.1 -364.5 0L0 0Z" fill="#2d426d"></path><path d="M0 303.8C-39.7 295.6 -79.4 287.5 -111.7 269.7C-144 251.8 -168.9 224.1 -198.4 198.4C-228 172.7 -262.3 149 -280.6 116.2C-299 83.5 -301.4 41.7 -303.7 0L0 0Z" fill="#47568d"></path><path d="M0 243C-31.8 236.5 -63.5 230 -89.4 215.7C-115.2 201.4 -135.1 179.3 -158.7 158.7C-182.4 138.2 -209.8 119.2 -224.5 93C-239.2 66.8 -241.1 33.4 -243 0L0 0Z" fill="#646bae"></path><path d="M0 182.3C-23.8 177.4 -47.6 172.5 -67 161.8C-86.4 151.1 -101.3 134.5 -119.1 119.1C-136.8 103.6 -157.4 89.4 -168.4 69.7C-179.4 50.1 -180.8 25 -182.2 0L0 0Z" fill="#847fcf"></path><path d="M0 121.5C-15.9 118.3 -31.8 115 -44.7 107.9C-57.6 100.7 -67.5 89.7 -79.4 79.4C-91.2 69.1 -104.9 59.6 -112.3 46.5C-119.6 33.4 -120.5 16.7 -121.5 0L0 0Z" fill="#a893ef"></path><path d="M0 60.8C-7.9 59.1 -15.9 57.5 -22.3 53.9C-28.8 50.4 -33.8 44.8 -39.7 39.7C-45.6 34.5 -52.5 29.8 -56.1 23.2C-59.8 16.7 -60.3 8.3 -60.7 0L0 0Z" fill="#bb9dff"></path></g><g transform="translate(0, 540)"><path d="M0 -486C63.6 -480.2 127.1 -474.5 186 -449C244.8 -423.5 298.9 -378.3 324.6 -324.6C350.2 -270.8 347.4 -208.6 369.6 -153.1C391.7 -97.6 438.9 -48.8 486 0L0 0Z" fill="#071b30"></path><path d="M0 -425.2C55.6 -420.2 111.3 -415.2 162.7 -392.9C214.2 -370.6 261.6 -331 284 -284C306.4 -237 304 -182.5 323.4 -133.9C342.8 -85.4 384 -42.7 425.3 0L0 0Z" fill="#182e4e"></path><path d="M0 -364.5C47.7 -360.2 95.4 -355.9 139.5 -336.8C183.6 -317.6 224.2 -283.7 243.4 -243.4C262.7 -203.1 260.5 -156.4 277.2 -114.8C293.8 -73.2 329.1 -36.6 364.5 0L0 0Z" fill="#2d426d"></path><path d="M0 -303.7C39.7 -300.2 79.5 -296.6 116.2 -280.6C153 -264.7 186.8 -236.4 202.9 -202.9C218.9 -169.3 217.1 -130.4 231 -95.7C244.8 -61 274.3 -30.5 303.8 0L0 0Z" fill="#47568d"></path><path d="M0 -243C31.8 -240.1 63.6 -237.2 93 -224.5C122.4 -211.8 149.5 -189.1 162.3 -162.3C175.1 -135.4 173.7 -104.3 184.8 -76.5C195.9 -48.8 219.4 -24.4 243 0L0 0Z" fill="#646bae"></path><path d="M0 -182.2C23.8 -180.1 47.7 -177.9 69.7 -168.4C91.8 -158.8 112.1 -141.9 121.7 -121.7C131.3 -101.6 130.3 -78.2 138.6 -57.4C146.9 -36.6 164.6 -18.3 182.3 0L0 0Z" fill="#847fcf"></path><path d="M0 -121.5C15.9 -120.1 31.8 -118.6 46.5 -112.3C61.2 -105.9 74.7 -94.6 81.1 -81.1C87.6 -67.7 86.8 -52.1 92.4 -38.3C97.9 -24.4 109.7 -12.2 121.5 0L0 0Z" fill="#a893ef"></path><path d="M0 -60.7C7.9 -60 15.9 -59.3 23.2 -56.1C30.6 -52.9 37.4 -47.3 40.6 -40.6C43.8 -33.9 43.4 -26.1 46.2 -19.1C49 -12.2 54.9 -6.1 60.8 0L0 0Z" fill="#bb9dff"></path></g></svg>